<mxfile host="app.diagrams.net" modified="2024-02-05T02:18:29.773Z" agent="Mozilla/5.0 (Windows NT 10.0; Win64; x64) AppleWebKit/537.36 (KHTML, like Gecko) Chrome/121.0.0.0 Safari/537.36 Edg/121.0.0.0" etag="SuPTsX0vQqEmGY_yJuTu" version="23.1.1" type="github">
  <diagram name="IO - OUTPUT 소프트웨어 계층구조" id="bpLpY4RYHuedJQY9HUiB">
    <mxGraphModel dx="839" dy="719" grid="1" gridSize="10" guides="1" tooltips="1" connect="1" arrows="1" fold="1" page="1" pageScale="1" pageWidth="827" pageHeight="1169" math="0" shadow="0">
      <root>
        <mxCell id="0" />
        <mxCell id="1" parent="0" />
        <mxCell id="pYXkrNghT-1ezKArp8p4-1" value="" style="rounded=0;whiteSpace=wrap;html=1;dashed=1;" vertex="1" parent="1">
          <mxGeometry x="70" y="45" width="290" height="715" as="geometry" />
        </mxCell>
        <mxCell id="pYXkrNghT-1ezKArp8p4-2" value="" style="rounded=0;whiteSpace=wrap;html=1;dashed=1;" vertex="1" parent="1">
          <mxGeometry x="90" y="200" width="250" height="540" as="geometry" />
        </mxCell>
        <mxCell id="pYXkrNghT-1ezKArp8p4-3" value="" style="rounded=0;whiteSpace=wrap;html=1;dashed=1;" vertex="1" parent="1">
          <mxGeometry x="90" y="70" width="250" height="120" as="geometry" />
        </mxCell>
        <mxCell id="pYXkrNghT-1ezKArp8p4-4" value="Initialize hardware" style="rounded=0;whiteSpace=wrap;html=1;" vertex="1" parent="1">
          <mxGeometry x="153" y="95" width="170" height="35" as="geometry" />
        </mxCell>
        <mxCell id="pYXkrNghT-1ezKArp8p4-5" value="" style="rounded=0;whiteSpace=wrap;html=1;dashed=1;" vertex="1" parent="1">
          <mxGeometry x="400" y="60" width="278" height="260" as="geometry" />
        </mxCell>
        <mxCell id="pYXkrNghT-1ezKArp8p4-6" value="Interrupt&amp;nbsp; Routines" style="text;html=1;strokeColor=none;fillColor=none;align=center;verticalAlign=middle;whiteSpace=wrap;rounded=0;" vertex="1" parent="1">
          <mxGeometry x="403" y="70" width="127" height="30" as="geometry" />
        </mxCell>
        <mxCell id="pYXkrNghT-1ezKArp8p4-7" value="USART2_IRQHandler" style="shape=process;whiteSpace=wrap;html=1;backgroundOutline=1;" vertex="1" parent="1">
          <mxGeometry x="449" y="155.5" width="177" height="30" as="geometry" />
        </mxCell>
        <mxCell id="pYXkrNghT-1ezKArp8p4-8" value="Initialize global variable" style="rounded=0;whiteSpace=wrap;html=1;" vertex="1" parent="1">
          <mxGeometry x="152" y="140" width="170" height="35" as="geometry" />
        </mxCell>
        <mxCell id="pYXkrNghT-1ezKArp8p4-9" value="vCLI_Command" style="rounded=0;whiteSpace=wrap;html=1;" vertex="1" parent="1">
          <mxGeometry x="151" y="225" width="170" height="35" as="geometry" />
        </mxCell>
        <mxCell id="pYXkrNghT-1ezKArp8p4-10" value="vChannel_Slave_Recv" style="rounded=0;whiteSpace=wrap;html=1;" vertex="1" parent="1">
          <mxGeometry x="151" y="267" width="170" height="35" as="geometry" />
        </mxCell>
        <mxCell id="pYXkrNghT-1ezKArp8p4-11" value="vCAN0InOutProcess" style="rounded=0;whiteSpace=wrap;html=1;" vertex="1" parent="1">
          <mxGeometry x="151" y="309" width="170" height="35" as="geometry" />
        </mxCell>
        <mxCell id="pYXkrNghT-1ezKArp8p4-12" value="vDisplayFndPoll" style="rounded=0;whiteSpace=wrap;html=1;" vertex="1" parent="1">
          <mxGeometry x="151" y="352" width="170" height="35" as="geometry" />
        </mxCell>
        <mxCell id="pYXkrNghT-1ezKArp8p4-13" value="vChOut2Poll" style="rounded=0;whiteSpace=wrap;html=1;" vertex="1" parent="1">
          <mxGeometry x="151" y="395" width="170" height="35" as="geometry" />
        </mxCell>
        <mxCell id="pYXkrNghT-1ezKArp8p4-14" value="vChannel_Send01_Poll" style="rounded=0;whiteSpace=wrap;html=1;" vertex="1" parent="1">
          <mxGeometry x="151" y="438" width="170" height="35" as="geometry" />
        </mxCell>
        <mxCell id="pYXkrNghT-1ezKArp8p4-15" value="vChannel_Common01_Poll" style="rounded=0;whiteSpace=wrap;html=1;" vertex="1" parent="1">
          <mxGeometry x="151" y="481" width="170" height="35" as="geometry" />
        </mxCell>
        <mxCell id="pYXkrNghT-1ezKArp8p4-16" value="vFault_1_16_Process" style="rounded=0;whiteSpace=wrap;html=1;" vertex="1" parent="1">
          <mxGeometry x="151" y="524" width="170" height="35" as="geometry" />
        </mxCell>
        <mxCell id="pYXkrNghT-1ezKArp8p4-17" value="vOutENFB_1_16_Process" style="rounded=0;whiteSpace=wrap;html=1;" vertex="1" parent="1">
          <mxGeometry x="151" y="567" width="170" height="35" as="geometry" />
        </mxCell>
        <mxCell id="pYXkrNghT-1ezKArp8p4-18" value="vCpuPoll06" style="rounded=0;whiteSpace=wrap;html=1;" vertex="1" parent="1">
          <mxGeometry x="151" y="610" width="170" height="35" as="geometry" />
        </mxCell>
        <mxCell id="pYXkrNghT-1ezKArp8p4-19" value="USART5_IRQHandler" style="shape=process;whiteSpace=wrap;html=1;backgroundOutline=1;" vertex="1" parent="1">
          <mxGeometry x="448" y="198" width="178" height="30" as="geometry" />
        </mxCell>
        <mxCell id="pYXkrNghT-1ezKArp8p4-20" value="CAN0_RX1_IRQHandler" style="shape=process;whiteSpace=wrap;html=1;backgroundOutline=1;" vertex="1" parent="1">
          <mxGeometry x="449" y="240" width="178" height="30" as="geometry" />
        </mxCell>
        <mxCell id="pYXkrNghT-1ezKArp8p4-21" value="Output Board Application" style="rounded=0;whiteSpace=wrap;html=1;" vertex="1" parent="1">
          <mxGeometry x="90" y="20" width="120" height="40" as="geometry" />
        </mxCell>
        <mxCell id="pYXkrNghT-1ezKArp8p4-22" value="" style="endArrow=none;html=1;rounded=0;entryX=0.25;entryY=1;entryDx=0;entryDy=0;strokeWidth=2;" edge="1" parent="1">
          <mxGeometry width="50" height="50" relative="1" as="geometry">
            <mxPoint x="120" y="710" as="sourcePoint" />
            <mxPoint x="120" y="60" as="targetPoint" />
          </mxGeometry>
        </mxCell>
        <mxCell id="pYXkrNghT-1ezKArp8p4-23" value="" style="endArrow=none;html=1;rounded=0;" edge="1" parent="1">
          <mxGeometry width="50" height="50" relative="1" as="geometry">
            <mxPoint x="120" y="627" as="sourcePoint" />
            <mxPoint x="150" y="627" as="targetPoint" />
          </mxGeometry>
        </mxCell>
        <mxCell id="pYXkrNghT-1ezKArp8p4-24" value="" style="endArrow=none;html=1;rounded=0;" edge="1" parent="1">
          <mxGeometry width="50" height="50" relative="1" as="geometry">
            <mxPoint x="120" y="585" as="sourcePoint" />
            <mxPoint x="150" y="585" as="targetPoint" />
          </mxGeometry>
        </mxCell>
        <mxCell id="pYXkrNghT-1ezKArp8p4-25" value="" style="endArrow=none;html=1;rounded=0;" edge="1" parent="1">
          <mxGeometry width="50" height="50" relative="1" as="geometry">
            <mxPoint x="121" y="542" as="sourcePoint" />
            <mxPoint x="151" y="542" as="targetPoint" />
          </mxGeometry>
        </mxCell>
        <mxCell id="pYXkrNghT-1ezKArp8p4-26" value="" style="endArrow=none;html=1;rounded=0;" edge="1" parent="1">
          <mxGeometry width="50" height="50" relative="1" as="geometry">
            <mxPoint x="121" y="498" as="sourcePoint" />
            <mxPoint x="151" y="498" as="targetPoint" />
          </mxGeometry>
        </mxCell>
        <mxCell id="pYXkrNghT-1ezKArp8p4-27" value="" style="endArrow=none;html=1;rounded=0;" edge="1" parent="1">
          <mxGeometry width="50" height="50" relative="1" as="geometry">
            <mxPoint x="120" y="457" as="sourcePoint" />
            <mxPoint x="150" y="457" as="targetPoint" />
          </mxGeometry>
        </mxCell>
        <mxCell id="pYXkrNghT-1ezKArp8p4-28" value="" style="endArrow=none;html=1;rounded=0;" edge="1" parent="1">
          <mxGeometry width="50" height="50" relative="1" as="geometry">
            <mxPoint x="120" y="413" as="sourcePoint" />
            <mxPoint x="150" y="413" as="targetPoint" />
          </mxGeometry>
        </mxCell>
        <mxCell id="pYXkrNghT-1ezKArp8p4-29" value="" style="endArrow=none;html=1;rounded=0;" edge="1" parent="1">
          <mxGeometry width="50" height="50" relative="1" as="geometry">
            <mxPoint x="120" y="371" as="sourcePoint" />
            <mxPoint x="150" y="371" as="targetPoint" />
          </mxGeometry>
        </mxCell>
        <mxCell id="pYXkrNghT-1ezKArp8p4-30" value="" style="endArrow=none;html=1;rounded=0;" edge="1" parent="1">
          <mxGeometry width="50" height="50" relative="1" as="geometry">
            <mxPoint x="120" y="328" as="sourcePoint" />
            <mxPoint x="150" y="328" as="targetPoint" />
          </mxGeometry>
        </mxCell>
        <mxCell id="pYXkrNghT-1ezKArp8p4-31" value="" style="endArrow=none;html=1;rounded=0;" edge="1" parent="1">
          <mxGeometry width="50" height="50" relative="1" as="geometry">
            <mxPoint x="120" y="285" as="sourcePoint" />
            <mxPoint x="150" y="285" as="targetPoint" />
          </mxGeometry>
        </mxCell>
        <mxCell id="pYXkrNghT-1ezKArp8p4-32" value="" style="endArrow=none;html=1;rounded=0;" edge="1" parent="1">
          <mxGeometry width="50" height="50" relative="1" as="geometry">
            <mxPoint x="121" y="243" as="sourcePoint" />
            <mxPoint x="151" y="243" as="targetPoint" />
          </mxGeometry>
        </mxCell>
        <mxCell id="pYXkrNghT-1ezKArp8p4-33" value="" style="endArrow=none;html=1;rounded=0;" edge="1" parent="1">
          <mxGeometry width="50" height="50" relative="1" as="geometry">
            <mxPoint x="121" y="159" as="sourcePoint" />
            <mxPoint x="151" y="159" as="targetPoint" />
          </mxGeometry>
        </mxCell>
        <mxCell id="pYXkrNghT-1ezKArp8p4-34" value="" style="endArrow=none;html=1;rounded=0;" edge="1" parent="1">
          <mxGeometry width="50" height="50" relative="1" as="geometry">
            <mxPoint x="121" y="113" as="sourcePoint" />
            <mxPoint x="151" y="113" as="targetPoint" />
          </mxGeometry>
        </mxCell>
        <mxCell id="pYXkrNghT-1ezKArp8p4-35" value="Initialize Routines" style="text;html=1;strokeColor=none;fillColor=none;align=center;verticalAlign=middle;whiteSpace=wrap;rounded=0;" vertex="1" parent="1">
          <mxGeometry x="240" y="70" width="100" height="20" as="geometry" />
        </mxCell>
        <mxCell id="pYXkrNghT-1ezKArp8p4-36" value="Operation Routines" style="text;html=1;strokeColor=none;fillColor=none;align=center;verticalAlign=middle;whiteSpace=wrap;rounded=0;" vertex="1" parent="1">
          <mxGeometry x="230" y="200" width="110" height="20" as="geometry" />
        </mxCell>
        <mxCell id="pYXkrNghT-1ezKArp8p4-37" value="vInCpuRS485_Poll" style="rounded=0;whiteSpace=wrap;html=1;" vertex="1" parent="1">
          <mxGeometry x="151" y="653" width="170" height="35" as="geometry" />
        </mxCell>
        <mxCell id="pYXkrNghT-1ezKArp8p4-38" value="vLEDRunFailPoll" style="rounded=0;whiteSpace=wrap;html=1;" vertex="1" parent="1">
          <mxGeometry x="151" y="696" width="170" height="35" as="geometry" />
        </mxCell>
        <mxCell id="pYXkrNghT-1ezKArp8p4-39" value="" style="endArrow=none;html=1;rounded=0;" edge="1" parent="1">
          <mxGeometry width="50" height="50" relative="1" as="geometry">
            <mxPoint x="120" y="713" as="sourcePoint" />
            <mxPoint x="150" y="713" as="targetPoint" />
          </mxGeometry>
        </mxCell>
        <mxCell id="pYXkrNghT-1ezKArp8p4-40" value="" style="endArrow=none;html=1;rounded=0;" edge="1" parent="1">
          <mxGeometry width="50" height="50" relative="1" as="geometry">
            <mxPoint x="120" y="671" as="sourcePoint" />
            <mxPoint x="150" y="671" as="targetPoint" />
          </mxGeometry>
        </mxCell>
        <mxCell id="pYXkrNghT-1ezKArp8p4-41" value="USART0_IRQHandler" style="shape=process;whiteSpace=wrap;html=1;backgroundOutline=1;" vertex="1" parent="1">
          <mxGeometry x="448" y="113" width="177" height="30" as="geometry" />
        </mxCell>
      </root>
    </mxGraphModel>
  </diagram>
</mxfile>
